<svg preserveAspectRatio="none" width="100%" height="100%" overflow="visible" style="display: block;" viewBox="0 0 145 33" fill="none" xmlns="http://www.w3.org/2000/svg">
<path id="Vector" d="M43.7962 19.8109L44.5177 18.367C44.6234 18.0978 44.8931 18.0469 45.1336 18.1815C45.1336 18.1815 46.3398 18.8216 47.5716 18.8216C48.1073 18.8216 48.4826 18.607 48.4826 18.1524C48.4826 17.6723 48.1073 17.3776 46.686 16.8139C44.6234 16.0101 43.6577 14.9153 43.6577 13.2858C43.6577 11.6564 44.8639 10.1288 47.5971 10.1288C49.1787 10.1288 50.3302 10.5834 50.8915 10.9581C51.132 11.1181 51.2668 11.4127 51.132 11.6782L50.4614 13.0421C50.3266 13.2822 50.0314 13.3077 49.8201 13.2276C49.8201 13.2276 48.6138 12.6675 47.5971 12.6675C46.9557 12.6675 46.686 12.933 46.686 13.2822C46.686 13.7623 47.1671 13.9223 48.1583 14.3261C50.2209 15.1299 51.7734 16.0101 51.7734 18.0978C51.7734 19.8618 50.2209 21.3603 47.5133 21.3603C45.7458 21.3603 44.5141 20.8002 43.9492 20.371C43.7889 20.2365 43.6832 20.0219 43.7889 19.8109H43.7962ZM52.0758 11.0963C51.9155 10.7471 52.1305 10.4016 52.5314 10.4016H54.9438C55.1844 10.4016 55.3192 10.5361 55.3994 10.6962L58.107 16.7375H58.1325L60.811 10.6962C60.9459 10.4307 61.1317 10.4016 61.4524 10.4016H63.5952C64.0252 10.4016 64.2366 10.7507 64.0507 11.0963L55.8512 28.7983C55.7711 28.9584 55.6107 29.1184 55.3957 29.1184H53.0926C52.6917 29.1184 52.4512 28.7692 52.637 28.3983L56.4416 20.3492L52.0758 11.0963ZM65.2023 10.9071C65.2023 10.6125 65.4428 10.3979 65.7125 10.3979H66.7037C66.9443 10.3979 67.1046 10.5325 67.1593 10.6925L67.5346 11.7073C67.9902 11.1981 69.2219 10.1288 71.1242 10.1288C72.6511 10.1288 73.7225 10.718 74.6081 11.7873C75.0636 11.3072 76.4557 10.1288 78.3871 10.1288C81.8163 10.1288 83.0772 12.6675 83.0772 15.4754V20.582C83.0772 20.8511 82.8622 21.0912 82.5671 21.0912H80.3951C80.0999 21.0912 79.8849 20.8511 79.8849 20.582V15.2863C79.8849 13.8969 79.2144 13.013 77.8769 13.013C76.3245 13.013 75.6248 14.1369 75.6248 14.1369C75.6248 14.1369 75.6503 14.6716 75.6503 15.1517V20.5784C75.6503 20.8475 75.4098 21.0876 75.1401 21.0876H73.1322C72.837 21.0876 72.622 20.8475 72.622 20.5784V15.2826C72.622 13.8932 72.0061 13.0094 70.6395 13.0094C69.2729 13.0094 68.657 13.9733 68.3874 14.6934V20.5747C68.3874 20.8439 68.1469 21.0839 67.8772 21.0839H65.7052C65.4356 21.0839 65.195 20.8439 65.195 20.5747V10.8962L65.2023 10.9071ZM85.4023 10.9071C85.4023 10.6125 85.6428 10.3979 85.9124 10.3979H86.9037C87.1442 10.3979 87.3045 10.5325 87.3592 10.6925L87.7346 11.7073C88.1901 11.1981 89.4218 10.1288 91.3241 10.1288C92.8511 10.1288 93.9225 10.718 94.808 11.7873C95.2635 11.3072 96.6556 10.1288 98.5871 10.1288C102.016 10.1288 103.277 12.6675 103.277 15.4754V20.582C103.277 20.8511 103.062 21.0912 102.767 21.0912H100.595C100.3 21.0912 100.085 20.8511 100.085 20.582V15.2863C100.085 13.8969 99.4143 13.013 98.0769 13.013C96.5244 13.013 95.8247 14.1369 95.8247 14.1369C95.8247 14.1369 95.8502 14.6716 95.8502 15.1517V20.5784C95.8502 20.8475 95.6097 21.0876 95.3401 21.0876H93.3321C93.0369 21.0876 92.8219 20.8475 92.8219 20.5784V15.2826C92.8219 13.8932 92.206 13.0094 90.8394 13.0094C89.4729 13.0094 88.857 13.9733 88.5873 14.6934V20.5747C88.5873 20.8439 88.3468 21.0839 88.0771 21.0839H85.9052C85.6355 21.0839 85.395 20.8439 85.395 20.5747V10.8962L85.4023 10.9071ZM110.267 10.1324C113.025 10.1324 115.278 12.2165 115.278 15.1044C115.278 15.2899 115.252 15.6391 115.223 15.8246C115.197 16.0937 114.953 16.2792 114.713 16.2792H107.854C107.934 17.374 108.871 18.607 110.427 18.607C111.258 18.607 112.034 18.2869 112.515 17.9378C112.785 17.7777 113.025 17.7232 113.211 17.9378L114.308 19.1962C114.494 19.3817 114.549 19.6763 114.283 19.8909C113.397 20.7202 112.031 21.3603 110.292 21.3603C107.078 21.3603 104.8 18.8216 104.8 15.7446C104.8 12.6675 107.078 10.1288 110.267 10.1288V10.1324ZM112.14 14.4097C112.06 13.4204 111.203 12.5911 110.183 12.5911C109.112 12.5911 108.226 13.395 108.095 14.4097H112.14ZM117.417 13.2095H116.506C116.236 13.2095 116.025 12.9694 116.025 12.7003V10.9071C116.025 10.6125 116.24 10.3979 116.506 10.3979H117.417V7.43C117.417 7.16085 117.657 6.9208 117.927 6.9208L120.124 6.89534C120.394 6.89534 120.605 7.13539 120.605 7.40454V10.3979H122.963C123.258 10.3979 123.473 10.6125 123.473 10.9071V12.7003C123.473 12.9694 123.258 13.2095 122.963 13.2095H120.605V17.4868C120.605 18.236 121.006 18.3415 121.436 18.3415C121.892 18.3415 122.453 18.156 122.748 18.0469C123.043 17.9378 123.258 18.0723 123.339 18.3415L123.874 20.0255C123.98 20.291 123.849 20.5602 123.579 20.6656C123.444 20.7457 121.702 21.3603 120.39 21.3603C118.328 21.3603 117.417 20.0764 117.417 17.9123V13.2058V13.2095ZM125.427 10.9071C125.427 10.6125 125.667 10.3979 125.937 10.3979H126.954C127.194 10.3979 127.355 10.5325 127.435 10.7471L127.81 11.791C128.185 11.2563 129.177 10.1324 130.838 10.1324C132.099 10.1324 133.222 10.5325 132.901 11.2017L131.91 12.9403C131.775 13.1804 131.509 13.2895 131.294 13.1804C131.214 13.1549 130.813 13.0203 130.518 13.0203C129.446 13.0203 128.801 13.7405 128.615 14.1151V20.5856C128.615 20.9603 128.375 21.0948 128 21.0948H125.937C125.667 21.0948 125.427 20.8548 125.427 20.5856V10.9071ZM132.956 11.0963C132.795 10.7471 133.01 10.4016 133.411 10.4016H135.824C136.064 10.4016 136.199 10.5361 136.279 10.6962L138.987 16.7375H139.012L141.691 10.6962C141.826 10.4307 142.012 10.4016 142.332 10.4016H144.475C144.905 10.4016 145.117 10.7507 144.931 11.0963L136.731 28.7983C136.651 28.9584 136.491 29.1184 136.276 29.1184H133.972C133.572 29.1184 133.331 28.7692 133.517 28.3983L137.322 20.3492L132.956 11.0963ZM10.4442 21.0548V6.05515C10.4442 5.6878 10.0543 5.44775 9.72267 5.61142L8.19574 6.37159L0.0508983 10.4379C-0.222418 11.4054 0.655839 12.1329 1.47215 11.8819V27.1253C1.47215 27.3617 1.7236 27.5144 1.93496 27.4089L10.2511 23.2589L11.7015 22.5351C11.9566 21.6331 11.2095 20.9384 10.4442 21.0548ZM35.0974 21.0548V6.10607C35.0974 5.71326 34.682 5.45502 34.3285 5.63324L32.8526 6.37159L24.7041 10.4379C24.4308 11.4054 25.309 12.1329 26.1253 11.8819V27.0707C26.1253 27.3326 26.4023 27.5035 26.6355 27.3835L34.9043 23.2553L36.3547 22.5315C36.6098 21.6295 35.8627 20.9348 35.0974 21.0512V21.0548ZM22.7726 26.627V0.530299C22.7726 0.137485 22.3572 -0.120753 22.0037 0.0574677L20.5278 0.795812L12.3793 4.86216C12.106 5.82965 12.9842 6.55708 13.8006 6.30612V32.6465C13.8006 32.9083 14.0775 33.0793 14.3107 32.9593L22.5795 28.8311L24.0299 28.1073C24.285 27.2053 23.5379 26.5106 22.7726 26.627Z" fill="var(--fill-0, #354AD9)"/>
</svg>
