<svg preserveAspectRatio="none" width="100%" height="100%" overflow="visible" style="display: block;" viewBox="0 0 206 47" fill="none" xmlns="http://www.w3.org/2000/svg">
<path id="Vector" d="M62.2207 28.2155L63.2459 26.159C63.396 25.7757 63.7791 25.7031 64.1208 25.8948C64.1208 25.8948 65.8345 26.8065 67.5844 26.8065C68.3455 26.8065 68.8788 26.5009 68.8788 25.8534C68.8788 25.1696 68.3455 24.75 66.3263 23.9471C63.396 22.8022 62.024 21.243 62.024 18.9223C62.024 16.6015 63.7377 14.4258 67.6207 14.4258C69.8676 14.4258 71.5037 15.0734 72.301 15.6069C72.6427 15.8349 72.8342 16.2544 72.6427 16.6326L71.69 18.5752C71.4985 18.9171 71.0791 18.9533 70.7788 18.8394C70.7788 18.8394 69.0651 18.0416 67.6207 18.0416C66.7095 18.0416 66.3263 18.4198 66.3263 18.9171C66.3263 19.6009 67.0097 19.8288 68.418 20.4038C71.3483 21.5486 73.5539 22.8022 73.5539 25.7757C73.5539 28.2881 71.3483 30.4223 67.5016 30.4223C64.9906 30.4223 63.2407 29.6246 62.4382 29.0133C62.2104 28.8216 62.0602 28.516 62.2104 28.2155H62.2207ZM73.9836 15.8038C73.7558 15.3065 74.0612 14.8144 74.6307 14.8144H78.0581C78.3998 14.8144 78.5914 15.006 78.7053 15.2339L82.552 23.8383H82.5883L86.3936 15.2339C86.5852 14.8558 86.8492 14.8144 87.3048 14.8144H90.3491C90.96 14.8144 91.2603 15.3117 90.9962 15.8038L79.3473 41.0158C79.2334 41.2438 79.0056 41.4717 78.7001 41.4717H75.4281C74.8586 41.4717 74.5169 40.9744 74.7809 40.446L80.186 28.9822L73.9836 15.8038ZM92.6323 15.5344C92.6323 15.1148 92.974 14.8092 93.3571 14.8092H94.7653C95.107 14.8092 95.3348 15.0008 95.4125 15.2288L95.9457 16.674C96.5929 15.9488 98.3428 14.4258 101.045 14.4258C103.215 14.4258 104.737 15.265 105.995 16.788C106.642 16.1042 108.62 14.4258 111.364 14.4258C116.236 14.4258 118.027 18.0416 118.027 22.0407V29.3137C118.027 29.6971 117.722 30.039 117.302 30.039H114.216C113.797 30.039 113.492 29.6971 113.492 29.3137V21.7714C113.492 19.7925 112.539 18.5337 110.639 18.5337C108.433 18.5337 107.439 20.1344 107.439 20.1344C107.439 20.1344 107.476 20.8959 107.476 21.5797V29.3086C107.476 29.6919 107.134 30.0338 106.751 30.0338H103.898C103.479 30.0338 103.173 29.6919 103.173 29.3086V21.7662C103.173 19.7873 102.298 18.5286 100.357 18.5286C98.4153 18.5286 97.5404 19.9013 97.1572 20.927V29.3034C97.1572 29.6867 96.8155 30.0286 96.4324 30.0286H93.3467C92.9636 30.0286 92.6219 29.6867 92.6219 29.3034V15.5189L92.6323 15.5344ZM121.33 15.5344C121.33 15.1148 121.672 14.8092 122.055 14.8092H123.463C123.805 14.8092 124.033 15.0008 124.11 15.2288L124.644 16.674C125.291 15.9488 127.041 14.4258 129.743 14.4258C131.913 14.4258 133.435 15.265 134.693 16.788C135.34 16.1042 137.318 14.4258 140.062 14.4258C144.933 14.4258 146.725 18.0416 146.725 22.0407V29.3137C146.725 29.6971 146.419 30.039 146 30.039H142.914C142.495 30.039 142.189 29.6971 142.189 29.3137V21.7714C142.189 19.7925 141.237 18.5337 139.337 18.5337C137.131 18.5337 136.137 20.1344 136.137 20.1344C136.137 20.1344 136.173 20.8959 136.173 21.5797V29.3086C136.173 29.6919 135.832 30.0338 135.449 30.0338H132.596C132.177 30.0338 131.871 29.6919 131.871 29.3086V21.7662C131.871 19.7873 130.996 18.5286 129.055 18.5286C127.113 18.5286 126.238 19.9013 125.855 20.927V29.3034C125.855 29.6867 125.513 30.0286 125.13 30.0286H122.045C121.661 30.0286 121.32 29.6867 121.32 29.3034V15.5189L121.33 15.5344ZM156.655 14.431C160.574 14.431 163.774 17.3993 163.774 21.5124C163.774 21.7765 163.737 22.2738 163.696 22.538C163.66 22.9214 163.313 23.1856 162.971 23.1856H153.227C153.341 24.7448 154.672 26.5009 156.883 26.5009C158.063 26.5009 159.166 26.045 159.849 25.5477C160.232 25.3198 160.574 25.2421 160.838 25.5477L162.397 27.3401C162.661 27.6043 162.738 28.0239 162.36 28.3295C161.102 29.5106 159.161 30.4223 156.691 30.4223C152.125 30.4223 148.889 26.8065 148.889 22.4241C148.889 18.0416 152.125 14.4258 156.655 14.4258V14.431ZM159.316 20.5229C159.202 19.1139 157.985 17.9328 156.536 17.9328C155.014 17.9328 153.756 19.0777 153.569 20.5229H159.316ZM166.813 18.8135H165.518C165.135 18.8135 164.835 18.4716 164.835 18.0882V15.5344C164.835 15.1148 165.14 14.8092 165.518 14.8092H166.813V10.5821C166.813 10.1988 167.154 9.8569 167.538 9.8569L170.66 9.82063C171.043 9.82063 171.343 10.1625 171.343 10.5459V14.8092H174.693C175.112 14.8092 175.417 15.1148 175.417 15.5344V18.0882C175.417 18.4716 175.112 18.8135 174.693 18.8135H171.343V24.9054C171.343 25.9725 171.912 26.1227 172.523 26.1227C173.171 26.1227 173.968 25.8585 174.387 25.7031C174.807 25.5477 175.112 25.7394 175.226 26.1227L175.987 28.5212C176.137 28.8993 175.951 29.2827 175.568 29.4329C175.376 29.5469 172.901 30.4223 171.037 30.4223C168.107 30.4223 166.813 28.5937 166.813 25.5115V18.8083V18.8135ZM178.192 15.5344C178.192 15.1148 178.534 14.8092 178.917 14.8092H180.362C180.703 14.8092 180.931 15.0008 181.045 15.3065L181.578 16.7932C182.112 16.0317 183.52 14.431 185.881 14.431C187.672 14.431 189.267 15.0008 188.811 15.954L187.403 18.4301C187.211 18.772 186.833 18.9274 186.528 18.772C186.414 18.7358 185.845 18.5441 185.425 18.5441C183.903 18.5441 182.987 19.5698 182.723 20.1033V29.3189C182.723 29.8525 182.381 30.0442 181.848 30.0442H178.917C178.534 30.0442 178.192 29.7023 178.192 29.3189V15.5344ZM188.889 15.8038C188.661 15.3065 188.966 14.8144 189.536 14.8144H192.963C193.305 14.8144 193.497 15.006 193.611 15.2339L197.457 23.8383H197.493L201.299 15.2339C201.49 14.8558 201.754 14.8144 202.21 14.8144H205.254C205.865 14.8144 206.165 15.3117 205.901 15.8038L194.253 41.0158C194.139 41.2438 193.911 41.4717 193.605 41.4717H190.333C189.764 41.4717 189.422 40.9744 189.686 40.446L195.091 28.9822L188.889 15.8038ZM14.838 29.9872V8.62401C14.838 8.10081 14.284 7.75891 13.8129 7.99202L11.6436 9.07468L0.0723107 14.8662C-0.315988 16.2441 0.931744 17.2801 2.09146 16.9227V38.6329C2.09146 38.9696 2.4487 39.1872 2.74898 39.037L14.5636 33.1264L16.6242 32.0955C16.9866 30.8108 15.9252 29.8214 14.838 29.9872ZM49.8625 29.9872V8.69653C49.8625 8.13707 49.2723 7.76927 48.7701 8.0231L46.6733 9.07468L35.0968 14.8662C34.7085 16.2441 35.9563 17.2801 37.116 16.9227V38.5552C37.116 38.9282 37.5094 39.1717 37.8408 39.0007L49.5881 33.1212L51.6487 32.0903C52.0111 30.8056 50.9497 29.8162 49.8625 29.982V29.9872ZM32.3528 37.9232V0.755275C32.3528 0.195812 31.7626 -0.171982 31.2604 0.0818479L29.1636 1.13343L17.5872 6.9249C17.1989 8.30283 18.4466 9.33887 19.6063 8.98144V46.4965C19.6063 46.8695 19.9998 47.1129 20.3311 46.942L32.0784 41.0624L34.139 40.0316C34.5014 38.7469 33.4401 37.7575 32.3528 37.9232Z" fill="var(--fill-0, #354AD9)"/>
</svg>
