<svg preserveAspectRatio="none" width="100%" height="100%" overflow="visible" style="display: block;" viewBox="0 0 56 72" fill="none" xmlns="http://www.w3.org/2000/svg">
<g id="Pin - 1">
<g id="Vector" filter="url(#filter0_d_3066_94109)">
<path d="M42.7666 9.77249L42.877 9.89435C51.0301 18.9243 51.0301 33.56 42.877 42.5778L27.9959 59.0536L13.1148 42.5778C4.96172 33.5478 4.96172 18.9122 13.1148 9.89435L13.2253 9.77249C21.3784 0.742503 34.5913 0.742503 42.7445 9.77249H42.7666Z" fill="var(--fill-0, #5DD749)"/>
<path d="M12.1143 8.76465C20.7114 -0.754341 34.616 -0.917781 43.3965 8.27246H43.4316L43.8779 8.76465L43.9883 8.88672L43.9902 8.88867C52.6583 18.489 52.6585 33.9926 43.9893 43.582L43.9902 43.583L29.1094 60.0586L27.9961 61.291L26.8828 60.0586L12.002 43.583C3.33372 33.9825 3.33228 18.4781 12.002 8.88867L12.0039 8.88672L12.1143 8.76465Z" stroke="var(--stroke-0, white)" stroke-width="3" stroke-miterlimit="10"/>
</g>
<path id="Vector_2" d="M28.007 32.2439C31.0455 32.2439 33.5087 29.5159 33.5087 26.1508C33.5087 22.7856 31.0455 20.0577 28.007 20.0577C24.9685 20.0577 22.5053 22.7856 22.5053 26.1508C22.5053 29.5159 24.9685 32.2439 28.007 32.2439Z" fill="var(--fill-0, white)"/>
</g>
<defs>
<filter id="filter0_d_3066_94109" x="2.38419e-07" y="0" width="55.9919" height="71.5293" filterUnits="userSpaceOnUse" color-interpolation-filters="sRGB">
<feFlood flood-opacity="0" result="BackgroundImageFix"/>
<feColorMatrix in="SourceAlpha" type="matrix" values="0 0 0 0 0 0 0 0 0 0 0 0 0 0 0 0 0 0 127 0" result="hardAlpha"/>
<feOffset dy="4"/>
<feGaussianBlur stdDeviation="2"/>
<feComposite in2="hardAlpha" operator="out"/>
<feColorMatrix type="matrix" values="0 0 0 0 0 0 0 0 0 0 0 0 0 0 0 0 0 0 0.25 0"/>
<feBlend mode="normal" in2="BackgroundImageFix" result="effect1_dropShadow_3066_94109"/>
<feBlend mode="normal" in="SourceGraphic" in2="effect1_dropShadow_3066_94109" result="shape"/>
</filter>
</defs>
</svg>
