<svg preserveAspectRatio="none" width="100%" height="100%" overflow="visible" style="display: block;" viewBox="0 0 56 75" fill="none" xmlns="http://www.w3.org/2000/svg">
<g id="Group">
<path id="Vector" d="M56 28C56 12.536 43.464 0 28 0C12.536 0 0 12.536 0 28C0 43.464 12.536 56 28 56C43.464 56 56 43.464 56 28Z" fill="var(--fill-0, #A2ACEE)"/>
<path id="Vector_2" d="M38.44 24.555C38.44 18.7864 33.7636 14.11 27.995 14.11C22.2264 14.11 17.55 18.7864 17.55 24.555C17.55 30.3236 22.2264 35 27.995 35C33.7636 35 38.44 30.3236 38.44 24.555Z" fill="var(--fill-0, #C0C7F3)"/>
<path id="Vector_3" d="M31.5 38.91H24.5C14.6251 38.91 6.62 46.9151 6.62 56.79C6.62 66.6649 14.6251 74.67 24.5 74.67H31.5C41.3749 74.67 49.38 66.6649 49.38 56.79C49.38 46.9151 41.3749 38.91 31.5 38.91Z" fill="var(--fill-0, #C0C7F3)"/>
</g>
</svg>
