<svg preserveAspectRatio="none" width="100%" height="100%" overflow="visible" style="display: block;" viewBox="0 0 20 17" fill="none" xmlns="http://www.w3.org/2000/svg">
<g id="Layer_1" clip-path="url(#clip0_3058_94091)">
<path id="Vector" d="M3.82 12.22L4.55 11.49C2.88 10.32 1.63 8.91 1.14 8.3C2.05 7.19 5.5 3.33 9.51 3.33C10.44 3.33 11.33 3.54 12.17 3.87L12.94 3.1C11.88 2.63 10.73 2.33 9.51 2.33C4.34 2.33 0.27 7.78 0.1 8.01C-0.03 8.18 -0.03 8.42 0.1 8.6C0.2 8.73 1.62 10.64 3.82 12.22Z" fill="var(--fill-0, black)"/>
<path id="Vector_2" d="M18.91 8.01C18.81 7.88 17.39 5.97 15.19 4.39L14.46 5.12C16.13 6.28 17.38 7.7 17.87 8.3C16.96 9.42 13.51 13.28 9.51 13.28C8.58 13.28 7.68 13.07 6.84 12.74L6.07 13.51C7.13 13.98 8.29 14.28 9.51 14.28C14.67 14.28 18.74 8.83 18.91 8.6C19.04 8.42 19.04 8.18 18.91 8.01Z" fill="var(--fill-0, black)"/>
<path id="Vector_3" d="M9.51 6.07C9.65 6.07 9.79 6.08 9.93 6.11L10.73 5.31C10.35 5.15 9.94 5.07 9.51 5.07C7.72 5.07 6.27 6.52 6.27 8.3C6.27 8.73 6.36 9.15 6.51 9.53L7.32 8.72C7.28 8.59 7.27 8.44 7.27 8.3C7.27 7.07 8.27 6.07 9.51 6.07Z" fill="var(--fill-0, black)"/>
<path id="Vector_4" d="M9.51 10.54C9.37 10.54 9.22 10.53 9.09 10.49L8.28 11.3C8.66 11.45 9.08 11.54 9.51 11.54C11.29 11.54 12.75 10.09 12.75 8.3C12.75 7.87 12.66 7.46 12.5 7.08L11.7 7.88C11.74 8.02 11.75 8.16 11.75 8.3C11.75 9.54 10.74 10.54 9.51 10.54Z" fill="var(--fill-0, black)"/>
<path id="Vector_5" d="M7.6 10.92L8.32 10.2L11.41 7.11L12.12 6.4L13.82 4.7L14.55 3.97L17.66 0.86C17.86 0.66 17.86 0.34 17.66 0.15C17.56 0.05 17.44 0 17.31 0C17.18 0 17.05 0.05 16.95 0.15L13.66 3.44L12.91 4.19L11.41 5.69L10.69 6.41L7.61 9.49L6.89 10.21L5.19 11.91L4.46 12.64L1.35 15.75C1.16 15.95 1.16 16.26 1.35 16.46C1.45 16.56 1.58 16.61 1.7 16.61C1.83 16.61 1.96 16.56 2.06 16.46L5.35 13.17L6.1 12.42L7.6 10.92Z" fill="var(--fill-0, black)"/>
</g>
<defs>
<clipPath id="clip0_3058_94091">
<rect width="19.01" height="16.61" fill="white"/>
</clipPath>
</defs>
</svg>
