<svg preserveAspectRatio="none" width="100%" height="100%" overflow="visible" style="display: block;" viewBox="0 0 22 22" fill="none" xmlns="http://www.w3.org/2000/svg">
<g id="icon" clip-path="url(#clip0_0_294)">
<path id="Vector" d="M11 14.2353C12.7868 14.2353 14.2353 12.7868 14.2353 11C14.2353 9.2132 12.7868 7.76471 11 7.76471C9.2132 7.76471 7.76471 9.2132 7.76471 11C7.76471 12.7868 9.2132 14.2353 11 14.2353Z" stroke="var(--stroke-0, black)" stroke-linecap="round" stroke-linejoin="round"/>
<path id="Vector_2" d="M20.7059 12.3902V9.49501L19.0212 9.36747C18.3448 9.31646 17.745 8.89557 17.4897 8.25786C17.4897 8.25786 17.4897 8.24511 17.4897 8.23236C17.2345 7.6074 17.3493 6.88042 17.7833 6.37026L18.8936 5.09484L16.8516 3.05419L15.5754 4.16379C15.0649 4.61019 14.3374 4.72497 13.712 4.45714C13.712 4.45714 13.6993 4.45714 13.6865 4.45714C13.0611 4.20206 12.6272 3.62812 12.5762 2.95215L12.4485 1.29412H9.55146L9.42383 2.95215C9.37278 3.62812 8.95162 4.21481 8.31349 4.46989C8.31349 4.46989 8.30073 4.46989 8.28797 4.46989C7.66261 4.72497 6.93514 4.61019 6.42464 4.16379L5.14839 3.05419L3.10639 5.09484L4.21673 6.38301C4.66342 6.89317 4.77828 7.62016 4.51027 8.24511C4.51027 8.24511 4.51027 8.25787 4.51027 8.27062C4.25502 8.89557 3.65518 9.32921 2.97877 9.38023L1.29412 9.50777V12.403L2.97877 12.5305C3.65518 12.5815 4.25502 13.0024 4.51027 13.6401C4.51027 13.6401 4.51027 13.6529 4.51027 13.6656C4.76552 14.2906 4.65066 15.0175 4.21673 15.5277L3.10639 16.8031L5.14839 18.8438L6.42464 17.7342C6.93514 17.2878 7.66261 17.173 8.28797 17.4408C8.28797 17.4408 8.30073 17.4408 8.31349 17.4408C8.93886 17.6959 9.37278 18.3209 9.42383 18.9968L9.55146 20.7059H12.4485L12.5762 18.9968C12.6272 18.3209 13.0484 17.7087 13.6865 17.4536C13.6865 17.4536 13.6993 17.4536 13.712 17.4408C14.3374 17.1857 15.0649 17.2878 15.5754 17.7342L16.8516 18.8438L18.8936 16.8031L17.7833 15.5277C17.3366 15.0175 17.2217 14.2906 17.4897 13.6656C17.4897 13.6656 17.4897 13.6529 17.4897 13.6401C17.745 13.0151 18.3448 12.5815 19.0212 12.5305L20.7059 12.403V12.3902Z" stroke="var(--stroke-0, black)" stroke-linecap="round" stroke-linejoin="round"/>
</g>
<defs>
<clipPath id="clip0_0_294)">
<rect width="22" height="22" fill="white"/>
</clipPath>
</defs>
</svg>