<svg preserveAspectRatio="none" width="100%" height="100%" overflow="visible" style="display: block;" viewBox="0 0 20 18" fill="none" xmlns="http://www.w3.org/2000/svg">
<g id="Layer_1" clip-path="url(#clip0_0_317)">
<path id="Vector" d="M12.5 0H5.87C5.39 0 5 0.39 5 0.87V4.5H12.5V0Z" fill="var(--fill-0, #169154)"/>
<path id="Vector_2" d="M5 13.525V17.125C5 17.605 5.39 17.995 5.87 17.995H12.5V13.52H5V13.525Z" fill="var(--fill-0, #18482A)"/>
<path id="Vector_3" d="M5 4.5H12.5V9H5V4.5Z" fill="var(--fill-0, #0C8045)"/>
<path id="Vector_4" d="M5 9H12.5V13.525H5V9Z" fill="var(--fill-0, #17472A)"/>
<g id="Group">
<path id="Vector_5" d="M19.13 0H12.5V4.5H20V0.87C20 0.39 19.61 0 19.13 0Z" fill="var(--fill-0, #29C27F)"/>
<path id="Vector_6" d="M12.5 13.525V18H19.13C19.61 18 20 17.61 20 17.13V13.53H12.5V13.525Z" fill="var(--fill-0, #27663F)"/>
<path id="Vector_7" d="M12.5 4.5H20V9H12.5V4.5Z" fill="var(--fill-0, #19AC65)"/>
<path id="Vector_8" d="M12.5 9H20V13.525H12.5V9Z" fill="var(--fill-0, #129652)"/>
</g>
<path id="Vector_9" d="M9.16 14H0.84C0.375 14 0 13.625 0 13.16V4.84C0 4.375 0.375 4 0.84 4H9.16C9.625 4 10 4.375 10 4.84V13.16C10 13.625 9.625 14 9.16 14Z" fill="var(--fill-0, #0C7238)"/>
<path id="Vector_10" d="M2.905 6.5H4.1L5.07 8.375L6.095 6.5H7.21L5.675 9L7.245 11.5H6.07L5.015 9.535L3.965 11.5H2.77L4.365 8.99L2.91 6.5H2.905Z" fill="var(--fill-0, white)"/>
</g>
<defs>
<clipPath id="clip0_0_317">
<rect width="20" height="18" fill="white"/>
</clipPath>
</defs>
</svg>
