<svg width="22" height="22" viewBox="0 0 22 22" fill="none" xmlns="http://www.w3.org/2000/svg">
<path d="M11.3324 20.5832C16.6251 20.5832 20.9157 16.2926 20.9157 10.9998C20.9157 5.70711 16.6251 1.4165 11.3324 1.4165C6.03963 1.4165 1.74902 5.70711 1.74902 10.9998C1.74902 16.2926 6.03963 20.5832 11.3324 20.5832Z" stroke="#5DD749" stroke-width="1.5" stroke-miterlimit="10"/>
<path d="M11.499 8C12.0513 8 12.499 7.55228 12.499 7C12.499 6.44772 12.0513 6 11.499 6C10.9467 6 10.499 6.44772 10.499 7C10.499 7.55228 10.9467 8 11.499 8Z" fill="#5DD749"/>
<path d="M11.3322 15.5833V9.75H9.66553" stroke="#5DD749" stroke-width="1.5" stroke-miterlimit="10" stroke-linecap="round" stroke-linejoin="round"/>
<path d="M9.66553 15.5835H12.9989" stroke="#5DD749" stroke-width="1.5" stroke-miterlimit="10" stroke-linecap="round" stroke-linejoin="round"/>
</svg>
