<svg preserveAspectRatio="none" width="100%" height="100%" overflow="visible" style="display: block;" viewBox="0 0 22 22" fill="none" xmlns="http://www.w3.org/2000/svg">
<g id="Layer_1" clip-path="url(#clip0_0_335)">
<path id="Vector" d="M10.95 17.75H1.51C0.96 17.75 0.5 17.3 0.5 16.74V3.74C0.5 3.18 0.95 2.73 1.51 2.73H16.69C17.25 2.73 17.7 3.18 17.7 3.74V11.01" stroke="var(--stroke-0, black)" stroke-miterlimit="10"/>
<path id="Vector_2" d="M0.5 5.57H17.7" stroke="var(--stroke-0, black)" stroke-miterlimit="10"/>
<path id="Vector_3" d="M2.7 8.44H3.35" stroke="var(--stroke-0, black)" stroke-miterlimit="10" stroke-linecap="round"/>
<path id="Vector_4" d="M6.75 8.44H7.4" stroke="var(--stroke-0, black)" stroke-miterlimit="10" stroke-linecap="round"/>
<path id="Vector_5" d="M2.7 11.65H3.35" stroke="var(--stroke-0, black)" stroke-miterlimit="10" stroke-linecap="round"/>
<path id="Vector_6" d="M6.75 11.65H7.4" stroke="var(--stroke-0, black)" stroke-miterlimit="10" stroke-linecap="round"/>
<path id="Vector_7" d="M2.7 14.87H3.35" stroke="var(--stroke-0, black)" stroke-miterlimit="10" stroke-linecap="round"/>
<path id="Vector_8" d="M6.75 14.87H7.4" stroke="var(--stroke-0, black)" stroke-miterlimit="10" stroke-linecap="round"/>
<path id="Vector_9" d="M10.79 8.44H11.44" stroke="var(--stroke-0, black)" stroke-miterlimit="10" stroke-linecap="round"/>
<path id="Vector_10" d="M14.84 8.44H15.48" stroke="var(--stroke-0, black)" stroke-miterlimit="10" stroke-linecap="round"/>
<path id="Vector_11" d="M15.54 20.67C18.3401 20.67 20.61 18.4001 20.61 15.6C20.61 12.7999 18.3401 10.53 15.54 10.53C12.7399 10.53 10.47 12.7999 10.47 15.6C10.47 18.4001 12.7399 20.67 15.54 20.67Z" stroke="var(--stroke-0, black)" stroke-miterlimit="10" stroke-linecap="round"/>
<path id="Vector_12" d="M1.9 2.73V0.5" stroke="var(--stroke-0, black)" stroke-miterlimit="10" stroke-linecap="round"/>
<path id="Vector_13" d="M6.75 2.73V0.5" stroke="var(--stroke-0, black)" stroke-miterlimit="10" stroke-linecap="round"/>
<path id="Vector_14" d="M11.6 2.73V0.5" stroke="var(--stroke-0, black)" stroke-miterlimit="10" stroke-linecap="round"/>
<path id="Vector_15" d="M16.44 2.73V0.5" stroke="var(--stroke-0, black)" stroke-miterlimit="10" stroke-linecap="round"/>
<path id="Tick" d="M13.61 15.6L15.37 17.35L17.35 13.85" stroke="var(--stroke-0, black)" stroke-linecap="round" stroke-linejoin="round"/>
</g>
<defs>
<clipPath id="clip0_0_335">
<rect width="21.11" height="21.17" fill="white"/>
</clipPath>
</defs>
</svg>
