<svg width="20" height="18" viewBox="0 0 20 18" fill="none" xmlns="http://www.w3.org/2000/svg">
<g clip-path="url(#clip0_3110_19413)">
<path d="M12.5 0H5.87C5.39 0 5 0.39 5 0.87V4.5H12.5V0Z" fill="#169154"/>
<path d="M5 13.525V17.125C5 17.605 5.39 17.995 5.87 17.995H12.5V13.52H5V13.525Z" fill="#18482A"/>
<path d="M5 4.5H12.5V9H5V4.5Z" fill="#0C8045"/>
<path d="M5 9H12.5V13.525H5V9Z" fill="#17472A"/>
<path d="M19.13 0H12.5V4.5H20V0.87C20 0.39 19.61 0 19.13 0Z" fill="#29C27F"/>
<path d="M12.5 13.5249V17.9999H19.13C19.61 17.9999 20 17.6099 20 17.1299V13.5299H12.5V13.5249Z" fill="#27663F"/>
<path d="M12.5 4.5H20V9H12.5V4.5Z" fill="#19AC65"/>
<path d="M12.5 9H20V13.525H12.5V9Z" fill="#129652"/>
<path d="M9.16 14H0.84C0.375 14 0 13.625 0 13.16V4.84C0 4.375 0.375 4 0.84 4H9.16C9.625 4 10 4.375 10 4.84V13.16C10 13.625 9.625 14 9.16 14Z" fill="#0C7238"/>
<path d="M2.90502 6.5H4.10002L5.07002 8.375L6.09502 6.5H7.21002L5.67502 9L7.24502 11.5H6.07002L5.01502 9.535L3.96502 11.5H2.77002L4.36502 8.99L2.91002 6.5H2.90502Z" fill="white"/>
</g>
<defs>
<clipPath id="clip0_3110_19413">
<rect width="20" height="18" fill="white"/>
</clipPath>
</defs>
</svg>
