<svg width="56" height="40" viewBox="0 0 56 40" fill="none" xmlns="http://www.w3.org/2000/svg">
<g clip-path="url(#clip0_3110_19204)">
<path d="M0.0736144 34.0237L0.473358 33.2205C0.53242 33.0717 0.680505 33.0425 0.814038 33.1164C0.814038 33.1164 1.47999 33.4733 2.16135 33.4733C2.45752 33.4733 2.66467 33.3547 2.66467 33.1018C2.66467 32.8343 2.45752 32.6701 1.67259 32.3579C0.53242 31.9116 0 31.3018 0 30.3945C0 29.4872 0.665954 28.6392 2.1759 28.6392C3.04901 28.6392 3.68586 28.8921 3.99658 29.1002C4.13011 29.1896 4.20372 29.353 4.13011 29.5018L3.76033 30.2603C3.68671 30.3945 3.52322 30.4091 3.40509 30.3644C3.40509 30.3644 2.73914 30.0522 2.1759 30.0522C1.82067 30.0522 1.67259 30.201 1.67259 30.3945C1.67259 30.662 1.9388 30.7514 2.48663 30.9742C3.62679 31.4205 4.48534 31.9116 4.48534 33.0717C4.48534 34.053 3.62679 34.8863 2.13139 34.8863C1.15386 34.8863 0.473358 34.5741 0.162636 34.3359C0.0736144 34.2611 0.0145517 34.1424 0.0736144 34.0237Z" fill="#354AD9"/>
<path d="M4.64883 29.175C4.55981 28.9815 4.67879 28.788 4.90049 28.788H6.23325C6.36679 28.788 6.4404 28.8628 6.48491 28.9514L7.98031 32.3132H7.99486L9.47571 28.9514C9.54933 28.8026 9.65376 28.788 9.83094 28.788H11.0156C11.2527 28.788 11.3709 28.9815 11.2673 29.175L6.73657 39.0221C6.69206 39.1115 6.60304 39.2001 6.48491 39.2001H5.21207C4.99037 39.2001 4.85684 39.0066 4.96041 38.7985L7.0627 34.3213L4.64969 29.175H4.64883Z" fill="#354AD9"/>
<path d="M11.9033 29.071C11.9033 28.9076 12.0368 28.788 12.1849 28.788H12.7327C12.8663 28.788 12.9544 28.8628 12.9844 28.9514L13.1915 29.5164C13.4432 29.2335 14.1245 28.6384 15.1757 28.6384C16.0197 28.6384 16.612 28.966 17.0999 29.5603C17.3516 29.2928 18.1211 28.6384 19.1877 28.6384C21.0828 28.6384 21.7787 30.0514 21.7787 31.6131V34.4546C21.7787 34.6034 21.6606 34.7375 21.4971 34.7375H20.2979C20.1352 34.7375 20.0163 34.6034 20.0163 34.4546V31.5091C20.0163 30.7359 19.6465 30.2449 18.9061 30.2449C18.0475 30.2449 17.6623 30.8701 17.6623 30.8701C17.6623 30.8701 17.6769 31.1677 17.6769 31.4351V34.4546C17.6769 34.6034 17.5433 34.7375 17.3953 34.7375H16.285C16.1224 34.7375 16.0034 34.6034 16.0034 34.4546V31.5091C16.0034 30.7359 15.6627 30.2449 14.9078 30.2449C14.1528 30.2449 13.8121 30.7807 13.664 31.1823V34.4546C13.664 34.6034 13.5305 34.7375 13.3824 34.7375H12.1832C12.0351 34.7375 11.9016 34.6034 11.9016 34.4546V29.0701L11.9033 29.071Z" fill="#354AD9"/>
<path d="M23.0661 29.071C23.0661 28.9076 23.1997 28.788 23.3477 28.788H23.8956C24.0291 28.788 24.1173 28.8628 24.1472 28.9514L24.3544 29.5164C24.606 29.2335 25.2874 28.6384 26.3385 28.6384C27.1825 28.6384 27.7749 28.966 28.2628 29.5603C28.5144 29.2928 29.284 28.6384 30.3505 28.6384C32.2457 28.6384 32.9416 30.0514 32.9416 31.6131V34.4546C32.9416 34.6034 32.8235 34.7375 32.66 34.7375H31.4607C31.2981 34.7375 31.1791 34.6034 31.1791 34.4546V31.5091C31.1791 30.7359 30.8093 30.2449 30.0689 30.2449C29.2104 30.2449 28.8252 30.8701 28.8252 30.8701C28.8252 30.8701 28.8397 31.1677 28.8397 31.4351V34.4546C28.8397 34.6034 28.7062 34.7375 28.5581 34.7375H27.4479C27.2853 34.7375 27.1663 34.6034 27.1663 34.4546V31.5091C27.1663 30.7359 26.8256 30.2449 26.0706 30.2449C25.3156 30.2449 24.975 30.7807 24.8269 31.1823V34.4546C24.8269 34.6034 24.6933 34.7375 24.5453 34.7375H23.346C23.1979 34.7375 23.0644 34.6034 23.0644 34.4546V29.0701L23.0661 29.071Z" fill="#354AD9"/>
<path d="M36.8055 28.6392C38.33 28.6392 39.5737 29.7994 39.5737 31.4059C39.5737 31.5099 39.5592 31.7034 39.5438 31.8075C39.5292 31.9563 39.3957 32.0603 39.2621 32.0603H35.4719C35.5164 32.6701 36.0342 33.3547 36.8928 33.3547C37.3516 33.3547 37.7813 33.1766 38.0475 32.9831C38.1956 32.8937 38.3291 32.8644 38.4327 32.9831L39.0396 33.6823C39.1432 33.7864 39.1731 33.9498 39.025 34.0693C38.5363 34.5303 37.7813 34.8872 36.8192 34.8872C35.043 34.8872 33.7839 33.4742 33.7839 31.7636C33.7839 30.0531 35.0422 28.6401 36.8038 28.6401L36.8055 28.6392ZM37.8421 31.0189C37.7976 30.4685 37.3242 30.0075 36.761 30.0075C36.1686 30.0075 35.6799 30.4538 35.6063 31.0189H37.8421Z" fill="#354AD9"/>
<path d="M40.7584 30.3498H40.2551C40.107 30.3498 39.9889 30.2156 39.9889 30.0668V29.0701C39.9889 28.9067 40.107 28.7872 40.2551 28.7872H40.7584V27.1359C40.7584 26.9872 40.8919 26.853 41.04 26.853L42.2538 26.8384C42.4019 26.8384 42.52 26.9725 42.52 27.1213V28.7872H43.8228C43.9855 28.7872 44.1044 28.9058 44.1044 29.0701V30.0668C44.1044 30.2156 43.9863 30.3498 43.8228 30.3498H42.52V32.7294C42.52 33.1457 42.7417 33.2059 42.9788 33.2059C43.2305 33.2059 43.5412 33.1018 43.7047 33.0425C43.8673 32.9831 43.9863 33.0571 44.03 33.2059L44.3261 34.1433C44.3852 34.2921 44.3116 34.4408 44.1635 34.5002C44.089 34.5449 43.1269 34.8872 42.4019 34.8872C41.2617 34.8872 40.7584 34.1734 40.7584 32.9685V30.3498Z" fill="#354AD9"/>
<path d="M45.1847 29.071C45.1847 28.9076 45.3182 28.788 45.4663 28.788H46.0287C46.1622 28.788 46.2504 28.8628 46.2949 28.9815L46.502 29.562C46.7092 29.2645 47.257 28.6401 48.1746 28.6401C48.8705 28.6401 49.492 28.8637 49.3148 29.2352L48.767 30.2019C48.6925 30.336 48.5453 30.3954 48.4263 30.336C48.3818 30.3214 48.1601 30.2466 47.9966 30.2466C47.4042 30.2466 47.049 30.6482 46.9454 30.8563V34.4563C46.9454 34.6644 46.8119 34.7393 46.6048 34.7393H45.4646C45.3165 34.7393 45.183 34.6051 45.183 34.4563V29.0718L45.1847 29.071Z" fill="#354AD9"/>
<path d="M49.3447 29.175C49.2557 28.9815 49.3747 28.788 49.5964 28.788H50.9292C51.0627 28.788 51.1363 28.8628 51.1808 28.9514L52.6762 32.3132H52.6908L54.1716 28.9514C54.2452 28.8026 54.3497 28.788 54.5269 28.788H55.7115C55.9486 28.788 56.0668 28.9815 55.9632 29.175L51.4325 39.0221C51.388 39.1115 51.299 39.2001 51.1808 39.2001H49.908C49.6863 39.2001 49.5528 39.0066 49.6563 38.7985L51.7586 34.3213L49.3456 29.175H49.3447Z" fill="#354AD9"/>
<path d="M22.24 14.5566V4.18661C22.24 3.93119 21.9729 3.76521 21.7452 3.87959L20.6975 4.40591L15.1011 7.21728C14.9145 7.8855 15.5154 8.38947 16.0769 8.21661V18.7551C16.0769 18.9185 16.2481 19.0252 16.3945 18.9521L22.1064 16.0822C22.1064 16.0822 22.1064 16.0822 22.1073 16.0822L23.1037 15.5817C23.2783 14.9573 22.7655 14.4783 22.24 14.5574V14.5566Z" fill="#354AD9"/>
<path d="M39.1716 14.5563V4.22249C39.1716 3.95073 38.8866 3.77357 38.6443 3.89483L37.6291 4.40481L32.0327 7.21618C31.8461 7.8844 32.447 8.38837 33.0085 8.21551V18.7171C33.0085 18.8977 33.1977 19.0155 33.3586 18.9346L39.0381 16.082C39.0381 16.082 39.0381 16.082 39.0389 16.082L40.0353 15.5815C40.2099 14.9571 39.6972 14.4781 39.1716 14.5572V14.5563Z" fill="#354AD9"/>
<path d="M30.7058 18.4095V0.366535C30.7058 0.0947722 30.4208 -0.0823893 30.1785 0.0388717L29.1633 0.548856L23.5669 3.36022C23.3803 4.02845 23.9812 4.53241 24.5427 4.35955V22.5702C24.5427 22.7508 24.7319 22.8686 24.8928 22.7878L30.5723 19.9351C30.5723 19.9351 30.5723 19.9351 30.5731 19.9351L31.5695 19.4346C31.7441 18.8103 31.2314 18.3312 30.7058 18.4104V18.4095Z" fill="#354AD9"/>
</g>
<defs>
<clipPath id="clip0_3110_19204">
<rect width="56" height="39.2" fill="white"/>
</clipPath>
</defs>
</svg>
